<svg xmlns="http://www.w3.org/2000/svg" viewBox="0 0 1536 742" preserveAspectRatio="xMidYMid" width="1536" height="742" xmlns:xlink="http://www.w3.org/1999/xlink" style="shape-rendering:auto;display:block;background-position-x:0%;background-position-y:0%;background-size:auto;background-origin:padding-box;background-clip:border-box;background:scroll rgb(25, 28, 49) none  repeat;width:1536px;height:742px;;animation:none"><g><defs><radialGradient id="lg1-j3aiem2v25"><stop stop-opacity="1" stop-color="#ffed1a" offset="0.9"></stop>


<stop stop-opacity="0" stop-color="#ffed1a" offset="1"></stop></radialGradient>


<radialGradient id="lg2-a1tw3axpjo"><stop stop-opacity="1" stop-color="#ffdb64" offset="0.75"></stop>


<stop stop-opacity="0" stop-color="#ffdb64" offset="1"></stop></radialGradient>


<radialGradient id="lg3-hlsto82qts9"><stop stop-opacity="1" stop-color="#ffd898" offset="0.4"></stop>


<stop stop-opacity="0" stop-color="#ffd898" offset="1"></stop></radialGradient>


<radialGradient id="lgbk-eni3fai6o2h"><stop stop-opacity="0" stop-color="#000" offset="0"></stop>


<stop stop-opacity="0.3" stop-color="#000" offset="1"></stop></radialGradient></defs>
<rect fill="url(#lgbk-eni3fai6o2h)" height="742" width="1536" y="0" x="0" style="fill:url('#lgbk-eni3fai6o2h');;animation:none"></rect>
<circle opacity="0.9985694797415752" fill="url(#lg1-j3aiem2v25)" r="4.311961534896604" transform="matrix(1,0,0,1,0,71.2904052734375)" cy="0" cx="1119.0813766997499" style="filter:hue-rotate(2deg);fill:url('#lg1-j3aiem2v25');transform:matrix(1, 0, 0, 1, 0, 71.2904);opacity:0.998569;;animation:none"></circle>
<circle opacity="0.993903970286073" fill="url(#lg1-j3aiem2v25)" r="7.25301310212635" transform="matrix(1,0,0,1,0,117.12908935546875)" cy="0" cx="408.3244157104118" style="filter:hue-rotate(63deg);fill:url('#lg1-j3aiem2v25');transform:matrix(1, 0, 0, 1, 0, 117.129);opacity:0.993904;;animation:none"></circle>
<circle opacity="0.8871981941108221" fill="url(#lg1-j3aiem2v25)" r="9.890944858989766" transform="matrix(1,0,0,1,0,748.7166748046875)" cy="0" cx="656.1549442110496" style="filter:hue-rotate(-71deg);fill:url('#lg1-j3aiem2v25');transform:matrix(1, 0, 0, 1, 0, 748.717);opacity:0.887198;;animation:none"></circle>
<circle opacity="0.44485749113961853" fill="url(#lg2-a1tw3axpjo)" r="34.98271644923341" transform="matrix(1,0,0,1,0,775.8219604492188)" cy="0" cx="749.2334346783118" style="filter:hue-rotate(-46deg);fill:url('#lg2-a1tw3axpjo');transform:matrix(1, 0, 0, 1, 0, 775.822);opacity:0.444857;;animation:none"></circle>
<circle opacity="0.49578103460781153" fill="url(#lg2-a1tw3axpjo)" r="49.39166830110577" transform="matrix(1,0,0,1,0,451.54266357421875)" cy="0" cx="1205.2259278568858" style="filter:hue-rotate(-44deg);fill:url('#lg2-a1tw3axpjo');transform:matrix(1, 0, 0, 1, 0, 451.543);opacity:0.495781;;animation:none"></circle>
<circle opacity="0.328289364647984" fill="url(#lg3-hlsto82qts9)" r="69.4235288123431" transform="matrix(1,0,0,1,0,345.7297668457031)" cy="0" cx="924.7284915598807" style="filter:hue-rotate(61deg);fill:url('#lg3-hlsto82qts9');transform:matrix(1, 0, 0, 1, 0, 345.73);opacity:0.328289;;animation:none"></circle>
<circle opacity="0.4509346634989054" fill="url(#lg2-a1tw3axpjo)" r="47.57696107287821" transform="matrix(1,0,0,1,0,569.2091064453125)" cy="0" cx="1158.6847182719005" style="filter:hue-rotate(-40deg);fill:url('#lg2-a1tw3axpjo');transform:matrix(1, 0, 0, 1, 0, 569.209);opacity:0.450935;;animation:none"></circle>
<circle opacity="0.857507036867489" fill="url(#lg1-j3aiem2v25)" r="8.974236956833511" transform="matrix(1,0,0,1,0,578.6647338867188)" cy="0" cx="714.8839116021468" style="filter:hue-rotate(-30deg);fill:url('#lg1-j3aiem2v25');transform:matrix(1, 0, 0, 1, 0, 578.665);opacity:0.857507;;animation:none"></circle>
<circle opacity="0.4322484487358186" fill="url(#lg2-a1tw3axpjo)" r="21.90479724813352" transform="matrix(1,0,0,1,0,672.0059814453125)" cy="0" cx="264.7281050985606" style="filter:hue-rotate(50deg);fill:url('#lg2-a1tw3axpjo');transform:matrix(1, 0, 0, 1, 0, 672.006);opacity:0.432248;;animation:none"></circle>
<circle opacity="0.8043751310722933" fill="url(#lg1-j3aiem2v25)" r="6.169875806941114" transform="matrix(1,0,0,1,0,131.14984130859375)" cy="0" cx="649.8098046170627" style="filter:hue-rotate(42deg);fill:url('#lg1-j3aiem2v25');transform:matrix(1, 0, 0, 1, 0, 131.15);opacity:0.804375;;animation:none"></circle>
<circle opacity="0.2817584343886668" fill="url(#lg3-hlsto82qts9)" r="98.87187680916608" transform="matrix(1,0,0,1,0,515.4908447265625)" cy="0" cx="967.9569560912744" style="filter:hue-rotate(24deg);fill:url('#lg3-hlsto82qts9');transform:matrix(1, 0, 0, 1, 0, 515.491);opacity:0.281758;;animation:none"></circle>
<circle opacity="0.4984565112055419" fill="url(#lg2-a1tw3axpjo)" r="44.69657136634518" transform="matrix(1,0,0,1,0,396.0635070800781)" cy="0" cx="466.6133309732471" style="filter:hue-rotate(-47deg);fill:url('#lg2-a1tw3axpjo');transform:matrix(1, 0, 0, 1, 0, 396.064);opacity:0.498457;;animation:none"></circle>
<circle opacity="0.4570041889100871" fill="url(#lg2-a1tw3axpjo)" r="42.96908391141698" transform="matrix(1,0,0,1,0,364.14801025390625)" cy="0" cx="1492.620056819658" style="filter:hue-rotate(-37deg);fill:url('#lg2-a1tw3axpjo');transform:matrix(1, 0, 0, 1, 0, 364.148);opacity:0.457004;;animation:none"></circle>
<circle opacity="0.32529327615714204" fill="url(#lg3-hlsto82qts9)" r="39.316773555721674" transform="matrix(1,0,0,1,0,760.644287109375)" cy="0" cx="341.67891045848364" style="filter:hue-rotate(-41deg);fill:url('#lg3-hlsto82qts9');transform:matrix(1, 0, 0, 1, 0, 760.644);opacity:0.325293;;animation:none"></circle>
<circle opacity="0.4632833007492692" fill="url(#lg2-a1tw3axpjo)" r="19.755740902936672" transform="matrix(1,0,0,1,0,507.47235107421875)" cy="0" cx="1348.8812873753152" style="filter:hue-rotate(49deg);fill:url('#lg2-a1tw3axpjo');transform:matrix(1, 0, 0, 1, 0, 507.472);opacity:0.463283;;animation:none"></circle>
<circle opacity="0.9318477389183125" fill="url(#lg1-j3aiem2v25)" r="5.9378614381080475" transform="matrix(1,0,0,1,0,612.3076782226562)" cy="0" cx="934.4110672390898" style="filter:hue-rotate(-17deg);fill:url('#lg1-j3aiem2v25');transform:matrix(1, 0, 0, 1, 0, 612.308);opacity:0.931848;;animation:none"></circle>
<circle opacity="0.8161393143654128" fill="url(#lg1-j3aiem2v25)" r="12.898273486374393" transform="matrix(1,0,0,1,0,726.6202392578125)" cy="0" cx="105.32643129923224" style="filter:hue-rotate(71deg);fill:url('#lg1-j3aiem2v25');transform:matrix(1, 0, 0, 1, 0, 726.62);opacity:0.816139;;animation:none"></circle>
<circle opacity="0.8720299536691558" fill="url(#lg1-j3aiem2v25)" r="17.586972653490548" transform="matrix(1,0,0,1,0,126.4732666015625)" cy="0" cx="1361.2588710808654" style="filter:hue-rotate(2deg);fill:url('#lg1-j3aiem2v25');transform:matrix(1, 0, 0, 1, 0, 126.473);opacity:0.87203;;animation:none"></circle>
<circle opacity="0.49511700460499" fill="url(#lg2-a1tw3axpjo)" r="47.0418205768318" transform="matrix(1,0,0,1,0,478.5481262207031)" cy="0" cx="383.4881026132254" style="filter:hue-rotate(53deg);fill:url('#lg2-a1tw3axpjo');transform:matrix(1, 0, 0, 1, 0, 478.548);opacity:0.495117;;animation:none"></circle>
<circle opacity="0.9663267687185872" fill="url(#lg1-j3aiem2v25)" r="10.150064567752338" transform="matrix(1,0,0,1,0,484.2589416503906)" cy="0" cx="1200.995733285277" style="filter:hue-rotate(67deg);fill:url('#lg1-j3aiem2v25');transform:matrix(1, 0, 0, 1, 0, 484.259);opacity:0.966327;;animation:none"></circle>
<circle opacity="0.27642411379855286" fill="url(#lg3-hlsto82qts9)" r="33.109018204146366" transform="matrix(1,0,0,1,0,627.650390625)" cy="0" cx="17.08941937432912" style="filter:hue-rotate(56deg);fill:url('#lg3-hlsto82qts9');transform:matrix(1, 0, 0, 1, 0, 627.65);opacity:0.276424;;animation:none"></circle>
<circle opacity="0.4929281440294926" fill="url(#lg2-a1tw3axpjo)" r="18.33990339787792" transform="matrix(1,0,0,1,0,710.3259887695312)" cy="0" cx="509.7166851059103" style="filter:hue-rotate(-32deg);fill:url('#lg2-a1tw3axpjo');transform:matrix(1, 0, 0, 1, 0, 710.326);opacity:0.492928;;animation:none"></circle>
<circle opacity="0.9330430925532397" fill="url(#lg1-j3aiem2v25)" r="6.629955096779376" transform="matrix(1,0,0,1,0,15.7952880859375)" cy="0" cx="1515.9465884509434" style="filter:hue-rotate(-42deg);fill:url('#lg1-j3aiem2v25');transform:matrix(1, 0, 0, 1, 0, 15.7953);opacity:0.933043;;animation:none"></circle>
<circle opacity="0.40260738667296875" fill="url(#lg2-a1tw3axpjo)" r="19.486653566861317" transform="matrix(1,0,0,1,0,281.0608825683594)" cy="0" cx="1219.4206936652927" style="filter:hue-rotate(35deg);fill:url('#lg2-a1tw3axpjo');transform:matrix(1, 0, 0, 1, 0, 281.061);opacity:0.402607;;animation:none"></circle>
<circle opacity="0.9576515366523239" fill="url(#lg1-j3aiem2v25)" r="13.826395147526558" transform="matrix(1,0,0,1,0,616.5209350585938)" cy="0" cx="142.78000892344647" style="filter:hue-rotate(-62deg);fill:url('#lg1-j3aiem2v25');transform:matrix(1, 0, 0, 1, 0, 616.521);opacity:0.957652;;animation:none"></circle>
<circle opacity="0.8513564866789388" fill="url(#lg1-j3aiem2v25)" r="14.541570459705419" transform="matrix(1,0,0,1,0,506.80999755859375)" cy="0" cx="293.9062305214849" style="filter:hue-rotate(58deg);fill:url('#lg1-j3aiem2v25');transform:matrix(1, 0, 0, 1, 0, 506.81);opacity:0.851357;;animation:none"></circle>
<circle opacity="0.9678781002720855" fill="url(#lg1-j3aiem2v25)" r="9.289270836743139" transform="matrix(1,0,0,1,0,295.6235046386719)" cy="0" cx="298.86103841017814" style="filter:hue-rotate(27deg);fill:url('#lg1-j3aiem2v25');transform:matrix(1, 0, 0, 1, 0, 295.624);opacity:0.967878;;animation:none"></circle>
<circle opacity="0.8177879187054977" fill="url(#lg1-j3aiem2v25)" r="14.941972518423906" transform="matrix(1,0,0,1,0,529.2347412109375)" cy="0" cx="63.8211719551889" style="filter:hue-rotate(-12deg);fill:url('#lg1-j3aiem2v25');transform:matrix(1, 0, 0, 1, 0, 529.235);opacity:0.817788;;animation:none"></circle>
<circle opacity="0.4794686784906288" fill="url(#lg2-a1tw3axpjo)" r="48.44689952801648" transform="matrix(1,0,0,1,0,138.82470703125)" cy="0" cx="91.3817225943546" style="filter:hue-rotate(-19deg);fill:url('#lg2-a1tw3axpjo');transform:matrix(1, 0, 0, 1, 0, 138.825);opacity:0.479469;;animation:none"></circle>
<circle opacity="0.2730641804795909" fill="url(#lg3-hlsto82qts9)" r="99.24251129510196" transform="matrix(1,0,0,1,0,470.6712951660156)" cy="0" cx="1389.3908513535232" style="filter:hue-rotate(-61deg);fill:url('#lg3-hlsto82qts9');transform:matrix(1, 0, 0, 1, 0, 470.671);opacity:0.273064;;animation:none"></circle>
<g></g></g><!-- [ldio] generated by https://loading.io --></svg>